<svg t="1649333424532" class="icon" viewBox="0 0 1024 1024" version="1.1" xmlns="http://www.w3.org/2000/svg" p-id="2267" width="200" height="200"><path d="M256 341.333333h-68.266667c-10.24 0-17.066667-6.826667-17.066666-17.066666s6.826667-17.066667 17.066666-17.066667h68.266667c10.24 0 17.066667 6.826667 17.066667 17.066667s-6.826667 17.066667-17.066667 17.066666zM836.266667 341.333333h-68.266667c-10.24 0-17.066667-6.826667-17.066667-17.066666s6.826667-17.066667 17.066667-17.066667h68.266667c10.24 0 17.066667 6.826667 17.066666 17.066667s-6.826667 17.066667-17.066666 17.066666zM529.066667 102.4c-10.24 0-17.066667-6.826667-17.066667-17.066667v-68.266666c0-10.24 6.826667-17.066667 17.066667-17.066667s17.066667 6.826667 17.066666 17.066667v68.266666c0 10.24-6.826667 17.066667-17.066666 17.066667zM344.746667 163.84c-3.413333 0-10.24 0-13.653334-3.413333L283.306667 112.64c-6.826667-6.826667-6.826667-17.066667 0-23.893333s17.066667-6.826667 23.893333 0L354.986667 136.533333c6.826667 6.826667 6.826667 17.066667 0 23.893334-3.413333 3.413333-6.826667 3.413333-10.24 3.413333zM706.56 191.146667c-3.413333 0-10.24 0-13.653333-3.413334-6.826667-6.826667-6.826667-17.066667 0-23.893333l47.786666-47.786667c6.826667-6.826667 17.066667-6.826667 23.893334 0s6.826667 17.066667 0 23.893334L716.8 184.32c-3.413333 3.413333-6.826667 6.826667-10.24 6.826667zM665.6 358.4c-10.24 0-17.066667-6.826667-17.066667-17.066667 0-75.093333-61.44-136.533333-136.533333-136.533333s-136.533333 61.44-136.533333 136.533333c0 10.24-6.826667 17.066667-17.066667 17.066667s-17.066667-6.826667-17.066667-17.066667c0-95.573333 75.093333-170.666667 170.666667-170.666666s170.666667 75.093333 170.666667 170.666666c0 10.24-6.826667 17.066667-17.066667 17.066667z" fill="#b7d28d" p-id="2268"></path><path d="M744.106667 655.36c10.24-10.24 10.24-23.893333 3.413333-34.133333-20.48-23.893333-61.44-30.72-92.16-13.653334L570.026667 648.533333c-6.826667 3.413333-10.24 3.413333-17.066667 0-3.413333-3.413333-6.826667-10.24-6.826667-13.653333V341.333333c0-13.653333-17.066667-34.133333-34.133333-34.133333s-34.133333 20.48-34.133333 34.133333v256c0 10.24-6.826667 17.066667-17.066667 17.066667s-17.066667-6.826667-17.066667-17.066667V477.866667c0-13.653333-17.066667-34.133333-34.133333-34.133334s-34.133333 20.48-34.133333 34.133334v119.466666c0 10.24-6.826667 17.066667-17.066667 17.066667s-17.066667-6.826667-17.066667-17.066667V512c0-13.653333-17.066667-34.133333-34.133333-34.133333s-34.133333 20.48-34.133333 34.133333v85.333333c0 10.24-6.826667 17.066667-17.066667 17.066667s-17.066667-6.826667-17.066667-17.066667v-54.613333c0-17.066667-17.066667-30.72-34.133333-30.72s-34.133333 20.48-34.133333 34.133333v184.32C170.666667 819.2 249.173333 887.466667 344.746667 887.466667H221.866667c-10.24 0-17.066667 6.826667-17.066667 17.066666v102.4c0 10.24 6.826667 17.066667 17.066667 17.066667h341.333333c10.24 0 17.066667-6.826667 17.066667-17.066667v-102.4c0-10.24-6.826667-17.066667-17.066667-17.066666h-105.813333c34.133333 0 68.266667-13.653333 92.16-37.546667l194.56-194.56z" fill="#b7d28d" p-id="2269"></path></svg>
